<?xml version="1.0" encoding="utf-8"?>
<!-- Generator: Adobe Illustrator 21.1.0, SVG Export Plug-In . SVG Version: 6.00 Build 0)  -->
<svg version="1.1" id="Objects" xmlns="http://www.w3.org/2000/svg" xmlns:xlink="http://www.w3.org/1999/xlink" x="0px" y="0px"
	 viewBox="0 0 195 147" style="enable-background:new 0 0 195 147;" xml:space="preserve">
<style type="text/css">
	.st0{fill:#3C3C3B;}
	.st1{fill:#FFFFFF;}
</style>
<g>
	<g>
		<path class="st0" d="M14.3,135.3H9.9V107H1.8v-4.4h20.6v4.4h-8.1V135.3z"/>
		<path class="st0" d="M23.8,135.3v-4.2H28v-13.9h-3.2v-4.6h7.4v2.6c0.4-0.5,0.8-0.9,1.4-1.3c0.5-0.3,1-0.6,1.7-0.9
			c0.7-0.3,1.5-0.4,2.4-0.4h1.8v4.6h-2.8c-0.7,0-1.3,0.1-1.9,0.4c-0.6,0.2-1.1,0.5-1.5,0.8c-0.5,0.3-0.9,0.7-1.2,1.1v11.6h4.2v4.2
			H23.8z"/>
		<path class="st0" d="M44.6,131.1v-14.3h-3.2v-4.2h7.4v18.5h4.2v4.2H40.4v-4.2H44.6z M48.7,107.6h-4.2v-4.6h4.2V107.6z"/>
		<path class="st0" d="M64.9,112.7c1.1,0,2.2,0.2,3.2,0.6c1,0.4,1.8,0.9,2.5,1.6c0.7,0.7,1.2,1.5,1.6,2.5c0.4,1,0.6,2,0.6,3.2v6.9
			c0,1.2-0.2,2.2-0.6,3.2c-0.4,1-0.9,1.8-1.6,2.5c-0.7,0.7-1.5,1.2-2.5,1.6c-1,0.4-2,0.6-3.2,0.6h-4.2v9.7h-4.2v-28.2h-3.2v-4.2
			H64.9z M68.6,120.5c0-1-0.4-1.9-1.1-2.6c-0.7-0.7-1.6-1.1-2.6-1.1h-4.2v14.3h4.2c1,0,1.9-0.4,2.6-1.1c0.7-0.7,1.1-1.6,1.1-2.6
			V120.5z"/>
		<path class="st0" d="M87.1,112.7c1.1,0,2.2,0.2,3.2,0.6c1,0.4,1.8,0.9,2.5,1.6c0.7,0.7,1.2,1.5,1.6,2.5c0.4,1,0.6,2,0.6,3.2v6.9
			c0,1.2-0.2,2.2-0.6,3.2c-0.4,1-0.9,1.8-1.6,2.5c-0.7,0.7-1.5,1.2-2.5,1.6c-1,0.4-2,0.6-3.2,0.6h-4.2v9.7h-4.2v-28.2h-3.2v-4.2
			H87.1z M90.8,120.5c0-1-0.4-1.9-1.1-2.6c-0.7-0.7-1.6-1.1-2.6-1.1h-4.2v14.3h4.2c1,0,1.9-0.4,2.6-1.1c0.7-0.7,1.1-1.6,1.1-2.6
			V120.5z"/>
		<path class="st0" d="M105.1,135.3H101v-28.2h-3.2v-4.2h7.4V135.3z"/>
		<path class="st0" d="M110.7,120.8c0-1.2,0.2-2.3,0.6-3.3c0.4-1,1-1.9,1.7-2.6c0.7-0.7,1.6-1.3,2.6-1.7c1-0.4,2.1-0.6,3.3-0.6
			c1.2,0,2.3,0.2,3.3,0.6c1,0.4,1.9,1,2.6,1.7c0.7,0.7,1.3,1.6,1.7,2.6c0.4,1,0.6,2.1,0.6,3.2v5.6h-12.5v1.2c0,1,0.4,1.9,1.1,2.6
			c0.7,0.7,1.6,1.1,2.6,1.1h7.4v4.2h-7.4c-1.2,0-2.2-0.2-3.2-0.6c-1-0.4-1.8-0.9-2.5-1.6c-0.7-0.7-1.2-1.5-1.6-2.4
			c-0.4-0.9-0.6-2-0.6-3.1V120.8z M119,116.8c-1.2,0-2.2,0.4-3,1.1c-0.8,0.7-1.2,1.7-1.2,2.8v1.7h8.3v-1.7c0-1.1-0.4-2-1.2-2.8
			C121.1,117.1,120.2,116.8,119,116.8z"/>
		<path class="st0" d="M148.8,112.2c0-1.4-0.5-2.5-1.4-3.5c-0.9-0.9-2.1-1.4-3.5-1.4h-14.3v-4.4h14.3c1.3,0,2.5,0.2,3.6,0.7
			c1.1,0.5,2.1,1.2,2.9,2c0.8,0.8,1.5,1.8,2,2.9c0.5,1.1,0.7,2.3,0.7,3.6c0,1.3-0.2,2.5-0.7,3.6c-0.5,1.1-1.2,2.1-2,2.9
			c-0.8,0.8-1.8,1.5-2.9,2c-1.1,0.5-2.3,0.7-3.6,0.7h-6.2v13.9h-4.4V117h10.6c1.4,0,2.5-0.5,3.5-1.4
			C148.3,114.7,148.8,113.6,148.8,112.2z"/>
		<path class="st0" d="M161.5,135.3c-2.1,0-3.8-0.6-5-1.9c-1.3-1.3-1.9-2.9-1.9-5c0-2.1,0.6-3.8,1.9-5c1.3-1.3,2.9-1.9,5-1.9h5.5
			V120c0-0.9-0.3-1.7-0.9-2.3c-0.6-0.6-1.4-0.9-2.3-0.9h-6v-4.2h6c2.2,0,4,0.7,5.4,2c1.4,1.4,2,3.1,2,5.4v15.2H161.5z M161.5,125.6
			c-0.8,0-1.5,0.3-2,0.8c-0.5,0.5-0.8,1.2-0.8,2c0,0.8,0.3,1.5,0.8,2c0.5,0.5,1.2,0.8,2,0.8h5.5v-5.5H161.5z"/>
		<path class="st0" d="M188.8,112.7h4.4l-7.6,25.4c-0.7,2.3-1.7,4-2.9,5.2c-1.2,1.2-2.9,1.7-5,1.7h-1.4v-4.2h1.4
			c1,0,1.9-0.3,2.4-0.8c0.6-0.5,1-1.2,1.2-2l0.9-3l-6.2-18.3h-3v-4.2h6l5.1,15.9L188.8,112.7z"/>
	</g>
	<g>
		<path class="st1" d="M86.3,83.7V51.9c0,0-0.5-7.3-4.7-10.1c-5.4-3.6-30-17.7-30-17.7l10.8-5.8L84.1,31c0,0,12.5,5.8,12.5,20
			c0,12.9,0,27.1,0,27.1L86.3,83.7z"/>
		<path class="st1" d="M108.7,83.7V51.9c0,0,0.5-7.6,4.4-10.1c5.5-3.5,29.8-17.7,29.8-17.7l-10.9-5.8L111,31c0,0-11.8,5.8-11.8,20
			c0,12.9,0,27.1,0,27.1L108.7,83.7z"/>
		<path class="st1" d="M132.8,2.7l-28.5,17.4c0,0-6.1,3.1-10.8,0.7C87.6,17.9,64,2.7,64,2.7V15l20.6,12.8c0,0,11,8,23.6,1.3
			c11.4-6,24.6-14.1,24.6-14.1V2.7z"/>
		<circle class="st1" cx="73.6" cy="51" r="7.6"/>
		<circle class="st1" cx="121.9" cy="51" r="7.6"/>
		<circle class="st1" cx="95.7" cy="9.6" r="7.6"/>
	</g>
</g>
</svg>
