<?xml version="1.0" encoding="utf-8"?>
<!-- Generator: Adobe Illustrator 21.1.0, SVG Export Plug-In . SVG Version: 6.00 Build 0)  -->
<svg version="1.1" id="Слой_1" xmlns="http://www.w3.org/2000/svg" xmlns:xlink="http://www.w3.org/1999/xlink" x="0px" y="0px"
	 viewBox="0 0 144 104" style="enable-background:new 0 0 144 104;" xml:space="preserve">
<style type="text/css">
	.st0{fill:#EEF4FE;}
	.st1{fill:#3F82F0;}
</style>
<path class="st0" d="M58.2,95.3c0-4.5,0.3-8.5,1-12.1s1.9-7,3.7-10.1c1.7-3.1,4.1-6,7.2-8.6c3-2.7,6.9-5.3,11.5-7.9
	c4.1-2.2,7.7-4.1,10.8-5.7c3.1-1.6,5.7-3.2,7.8-4.5c2.1-1.4,3.7-2.8,4.8-4.2c1.1-1.4,1.6-3.1,1.6-5c0-3-1.2-5.5-3.6-7.7
	c-2.4-2.1-5.8-3.2-10.3-3.2c-2.4,0-4.6,0.3-6.6,1c-2,0.6-3.9,1.5-5.6,2.6s-3.3,2.3-4.8,3.7c-1.4,1.3-2.8,2.8-3.9,4.2l-12.7-15
	c1.3-1.4,3.1-2.9,5.5-4.5s5.2-3.2,8.4-4.6s6.8-2.6,10.7-3.6c3.9-0.9,8.1-1.4,12.6-1.4c5.1,0,9.6,0.6,13.6,1.9c4,1.2,7.3,3,10.1,5.2
	c2.7,2.2,4.8,4.9,6.3,8c1.4,3.1,2.2,6.5,2.2,10.2c0,3.5-0.6,6.6-1.9,9.2c-1.3,2.7-2.9,5.1-4.9,7.2c-2,2.1-4.1,3.9-6.5,5.4
	c-2.3,1.5-4.6,2.9-6.8,4.1c-1.8,1-3.8,2.1-6.1,3.4c-2.3,1.3-4.5,2.7-6.8,4.2c-2.2,1.5-4.3,3.1-6.2,4.8c-1.9,1.6-3.3,3.3-4.3,4.8h45
	v18H58.2V95.3z"/>
<g>
	<path class="st1" d="M84,3H15.5C14.7,3,14,3.7,14,4.5v96c0,0.8,0.7,1.5,1.5,1.5h52.1c0.4,0,0.8-0.2,1.1-0.4L85,85.2
		c0.3-0.3,0.4-0.7,0.4-1.1V4.5C85.5,3.7,84.8,3,84,3z M69.1,96.9V85.6h11.3L69.1,96.9z M82.5,82.6H67.6c-0.4,0-0.8,0.2-1.1,0.4
		c-0.3,0.3-0.4,0.7-0.4,1.1L66,99H17V6h65.4L82.5,82.6L82.5,82.6z"/>
	<path class="st1" d="M33.9,74.9c-4.7,0-8.6,3.9-8.6,8.6s3.9,8.6,8.6,8.6c4.7,0,8.6-3.9,8.6-8.6c0-2.3-0.9-4.4-2.5-6.1
		C38.4,75.7,36.2,74.9,33.9,74.9z M33.9,89c-3.1,0-5.6-2.5-5.6-5.6s2.5-5.6,5.6-5.6c3.1,0,5.6,2.5,5.6,5.6S37,89,33.9,89z"/>
	<path class="st1" d="M59.9,82.3h-11c-0.8,0-1.5,0.7-1.5,1.5s0.7,1.5,1.5,1.5h11c0.8,0,1.5-0.7,1.5-1.5
		C61.4,82.9,60.7,82.3,59.9,82.3z"/>
	<path class="st1" d="M27.4,18h5.8c0.8,0,1.5-0.7,1.5-1.5S34,15,33.2,15h-5.8c-0.8,0-1.5,0.7-1.5,1.5C25.9,17.3,26.6,18,27.4,18z"/>
	<path class="st1" d="M55.5,18h17.3c0.8,0,1.5-0.7,1.5-1.5S73.6,15,72.8,15H55.5c-0.8,0-1.5,0.7-1.5,1.5C54,17.3,54.7,18,55.5,18z"
		/>
	<path class="st1" d="M43.4,26.5h29.5c0.8,0,1.5-0.7,1.5-1.5s-0.7-1.5-1.5-1.5H43.4c-0.8,0-1.5,0.7-1.5,1.5S42.5,26.5,43.4,26.5z"/>
	<path class="st1" d="M26.5,42.3h46.4c0.8,0,1.5-0.7,1.5-1.5s-0.7-1.5-1.5-1.5H26.5c-0.8,0-1.5,0.7-1.5,1.5S25.7,42.3,26.5,42.3z"/>
	<path class="st1" d="M26.5,49h46.4c0.8,0,1.5-0.7,1.5-1.5S73.8,46,72.9,46H26.5c-0.8,0-1.5,0.7-1.5,1.5S25.7,49,26.5,49z"/>
	<path class="st1" d="M26.5,56.4h46.4c0.8,0,1.5-0.7,1.5-1.5s-0.7-1.5-1.5-1.5H26.5c-0.8,0-1.5,0.7-1.5,1.5S25.7,56.4,26.5,56.4z"/>
	<path class="st1" d="M72.9,60.2h-1.1c-0.8,0-1.5,0.7-1.5,1.5s0.7,1.5,1.5,1.5h1.1c0.8,0,1.5-0.7,1.5-1.5
		C74.4,60.8,73.8,60.2,72.9,60.2z"/>
	<path class="st1" d="M64.9,60.2H26.5c-0.8,0-1.5,0.7-1.5,1.5s0.7,1.5,1.5,1.5h38.3c0.8,0,1.5-0.7,1.5-1.5
		C66.4,60.8,65.7,60.2,64.9,60.2z"/>
</g>
</svg>
