<?xml version="1.0" encoding="utf-8"?>
<!-- Generator: Adobe Illustrator 21.1.0, SVG Export Plug-In . SVG Version: 6.00 Build 0)  -->
<svg version="1.1" id="Слой_1" xmlns="http://www.w3.org/2000/svg" xmlns:xlink="http://www.w3.org/1999/xlink" x="0px" y="0px"
	 viewBox="0 0 144 104" style="enable-background:new 0 0 144 104;" xml:space="preserve">
<style type="text/css">
	.st0{fill:#EEF4FE;}
	.st1{fill:#3F82F0;}
</style>
<g>
	<path class="st0" d="M45.6,49.3c2.4,0.5,4.7,1.3,6.7,2.5c2,1.2,3.8,2.8,5.3,4.6c1.5,1.9,2.6,4,3.4,6.4c0.8,2.4,1.2,5,1.2,7.7
		c0,3.7-0.7,7-2.2,10c-1.5,3-3.6,5.5-6.4,7.6c-2.8,2.1-6.2,3.7-10.1,4.8c-3.9,1.1-8.3,1.7-13.2,1.7c-12,0-21.3-3.5-28.1-10.5
		l10.2-13.5c2.1,2.2,4.5,3.9,7.3,5c2.7,1.1,6,1.7,9.7,1.7c8.9,0,13.3-3.3,13.3-9.8c0-3.5-1.3-6.2-4-8c-2.6-1.8-6.8-2.7-12.5-2.7
		h-3.5V43.2h3.9c4.4,0,7.9-0.9,10.3-2.7c2.5-1.8,3.7-4.2,3.7-7.2c0-2.6-0.9-4.6-2.7-5.9c-1.8-1.3-4.2-2-7.2-2
		c-3.2,0-6.2,0.8-8.8,2.3c-2.6,1.5-4.9,3.7-6.7,6.6L3.2,20.6c1.3-1.7,2.9-3.2,5-4.6c2-1.4,4.4-2.6,7-3.6c2.6-1,5.4-1.8,8.4-2.3
		c3-0.5,6.1-0.8,9.2-0.8c4.2,0,8,0.5,11.5,1.5c3.5,1,6.4,2.4,8.9,4.3c2.4,1.9,4.3,4.1,5.7,6.6c1.3,2.6,2,5.4,2,8.6
		c0,2.4-0.4,4.6-1.1,6.7c-0.7,2.1-1.8,4.1-3.1,5.8c-1.3,1.7-2.9,3.2-4.8,4.3C49.8,48.1,47.8,48.9,45.6,49.3z"/>
</g>
<g>
	<path class="st1" d="M139.5,36.7L139.5,36.7L107.8,5c-1.6-1.6-3.8-2.5-6.1-2.5c-2.3,0-4.5,0.9-6.1,2.5L45.5,55.2
		C43.9,56.8,43,59,43,61.3c0,2.3,0.9,4.5,2.5,6.1l31,31h-4.8c-0.9,0-1.6,0.7-1.6,1.6c0,0.9,0.7,1.6,1.6,1.6h11.6l30.1,0
		c0.9,0,1.6-0.7,1.6-1.6c0-0.9-0.7-1.6-1.6-1.6l-23.3,0l49.5-49.5C142.8,45.5,142.8,40,139.5,36.7z M47.8,65.1c-1-1-1.6-2.4-1.6-3.8
		s0.6-2.8,1.6-3.8L97.9,7.3c1-1,2.4-1.6,3.8-1.6c1.4,0,2.8,0.6,3.8,1.6l2.8,2.8l-3.4,3.4c-0.1,0-0.1,0.1-0.2,0.2l-0.9,0.9
		c-0.1,0.1-0.1,0.1-0.1,0.2L50.5,67.9L47.8,65.1z M110.6,12.3l6.6,6.6L63.9,72.2c0,0-0.1,0.1-0.1,0.1h0l-0.9,0.9
		c0,0-0.1,0.1-0.1,0.1l-3.4,3.4l-6.6-6.6L110.6,12.3z M137.2,46.6L87.1,96.7c-1,1-2.4,1.6-3.8,1.6c-1.5,0-2.8-0.6-3.8-1.6L61.6,79
		l57.8-57.8l17.8,17.8C139.3,41,139.3,44.5,137.2,46.6z"/>
	<path class="st1" d="M93.5,62.5c-0.3-0.3-0.7-0.5-1.1-0.5c-0.4,0-0.8,0.2-1.1,0.5L74.8,78.9c-0.6,0.6-0.6,1.6,0,2.3
		c0.3,0.3,0.7,0.5,1.1,0.5c0.4,0,0.8-0.2,1.1-0.5l16.4-16.4C94.1,64.1,94.1,63.1,93.5,62.5z"/>
	<path class="st1" d="M87.4,78.1L87.4,78.1l-6.7,6.7c-0.6,0.6-0.6,1.6,0,2.3c0.3,0.3,0.7,0.5,1.1,0.5s0.8-0.2,1.1-0.5l6.7-6.7
		c0.3-0.3,0.5-0.7,0.5-1.1c0-0.4-0.2-0.8-0.5-1.1C89.1,77.4,88.1,77.4,87.4,78.1z"/>
	<path class="st1" d="M94.8,71.4L94.8,71.4c-0.4,0-0.8,0.2-1.1,0.5l-0.9,0.9c-0.6,0.6-0.6,1.6,0,2.3c0.3,0.3,0.7,0.5,1.1,0.5
		c0.4,0,0.8-0.2,1.1-0.5l0.9-0.9c0.3-0.3,0.5-0.7,0.5-1.1c0-0.4-0.2-0.8-0.5-1.1C95.6,71.6,95.2,71.4,94.8,71.4z"/>
	<path class="st1" d="M121.7,34.3c-0.3-0.3-0.7-0.5-1.1-0.5c-0.4,0-0.8,0.2-1.1,0.5l-8.8,8.8c-0.3,0.3-0.5,0.7-0.5,1.1
		c0,0.4,0.2,0.8,0.5,1.1l5.9,5.9c0.3,0.3,0.7,0.5,1.1,0.5c0.4,0,0.8-0.2,1.1-0.5l8.8-8.8c0.6-0.6,0.6-1.6,0-2.3L121.7,34.3z
		 M117.6,47.9l-3.6-3.6l6.6-6.6l3.6,3.6L117.6,47.9z"/>
</g>
</svg>
