<?xml version="1.0" encoding="utf-8"?>
<!-- Generator: Adobe Illustrator 21.1.0, SVG Export Plug-In . SVG Version: 6.00 Build 0)  -->
<svg version="1.1" id="Слой_1" xmlns="http://www.w3.org/2000/svg" xmlns:xlink="http://www.w3.org/1999/xlink" x="0px" y="0px"
	 viewBox="0 0 144 104" style="enable-background:new 0 0 144 104;" xml:space="preserve">
<style type="text/css">
	.st0{fill:#EEF4FE;}
	.st1{fill:#3F82F0;}
</style>
<path class="st0" d="M68,77.2v18H7.5v-18h21.2V32.1c-0.9,1.2-2.3,2.4-4.2,3.7c-1.9,1.2-4,2.4-6.3,3.5s-4.6,2-7.1,2.7
	c-2.6,0.6-4.7,1-6.6,1V24.3c1.8,0,4-0.6,6.6-1.7s5.1-2.5,7.6-4.1s4.6-3.2,6.5-4.7c1.8-1.5,3-2.8,3.5-3.7h20.4v67L68,77.2L68,77.2z"
	/>
<g>
	<path class="st1" d="M50.3,43.6h23.3c0.8,0,1.5-0.7,1.5-1.5s-0.7-1.5-1.5-1.5H50.3c-0.8,0-1.5,0.7-1.5,1.5
		C48.8,42.9,49.5,43.6,50.3,43.6z"/>
	<path class="st1" d="M96.8,51.3H50.3c-0.8,0-1.5,0.7-1.5,1.5s0.7,1.5,1.5,1.5h46.5c0.8,0,1.5-0.7,1.5-1.5S97.7,51.3,96.8,51.3z"/>
	<path class="st1" d="M96.8,62.1H50.3c-0.8,0-1.5,0.7-1.5,1.5c0,0.8,0.7,1.5,1.5,1.5h46.5c0.8,0,1.5-0.7,1.5-1.5
		C98.3,62.7,97.7,62.1,96.8,62.1z"/>
	<path class="st1" d="M129.2,3.1L129.2,3.1L68.1,3c-5.7,0-10.3,4.6-10.3,10.3v9.5H43c-5.7,0-10.3,4.6-10.3,10.3V71
		c0,5.7,4.6,10.3,10.3,10.3h11.2v18.2c0,0.6,0.4,1.2,1,1.4c0.2,0.1,0.4,0.1,0.5,0.1c0.4,0,0.8-0.2,1.1-0.5l17.5-19.2h0.1l29.8-0.1
		c5.7,0,10.3-4.6,10.3-10.3v-1l9.9,10.9c0.3,0.3,0.7,0.5,1.1,0.5c0.2,0,0.3,0,0.5-0.1c0.6-0.2,0.9-0.8,0.9-1.4V61.6h2.2
		c5.7,0,10.3-4.6,10.3-10.3V13.4C139.5,7.8,134.9,3.1,129.2,3.1z M111.5,70.9c0,4-3.3,7.3-7.3,7.3l-30.6,0.1c-0.4,0-0.8,0.2-1.1,0.5
		L57.1,95.6V79.8c0-0.8-0.7-1.5-1.5-1.5H43c-4,0-7.3-3.3-7.3-7.3V33.1c0-4,3.3-7.3,7.3-7.3h16.2l44.9-0.1c4,0,7.3,3.3,7.3,7.3
		L111.5,70.9L111.5,70.9z M136.5,51.6L136.5,51.6c-0.2,3.9-3.4,7-7.3,7h-3.7c-0.8,0-1.5,0.7-1.5,1.5V76l-9.6-10.5V33
		c0-5.7-4.6-10.3-10.3-10.3l-43.4,0.1v-9.5C60.7,9.3,64,6,68,6l61.1,0.1c4.1,0,7.3,3.3,7.3,7.3v38.2H136.5z"/>
	<path class="st1" d="M79.5,43.6h2c0.8,0,1.5-0.7,1.5-1.5s-0.7-1.5-1.5-1.5h-2c-0.8,0-1.5,0.7-1.5,1.5C78,42.9,78.7,43.6,79.5,43.6z
		"/>
	<path class="st1" d="M87.1,43.6h9.7c0.8,0,1.5-0.7,1.5-1.5s-0.7-1.5-1.5-1.5h-9.7c-0.8,0-1.5,0.7-1.5,1.5
		C85.6,42.9,86.3,43.6,87.1,43.6z"/>
</g>
</svg>
