<svg id="Objects" xmlns="http://www.w3.org/2000/svg" viewBox="0 0 195 147"><style>.st1{fill:#fff}</style><path d="M14.3 135.3H9.9V107H1.8v-4.4h20.6v4.4h-8.1v28.3zm9.5 0v-4.2H28v-13.9h-3.2v-4.6h7.4v2.6c.4-.5.8-.9 1.4-1.3.5-.3 1-.6 1.7-.9.7-.3 1.5-.4 2.4-.4h1.8v4.6h-2.8c-.7 0-1.3.1-1.9.4-.6.2-1.1.5-1.5.8-.5.3-.9.7-1.2 1.1v11.6h4.2v4.2H23.8zm20.8-4.2v-14.3h-3.2v-4.2h7.4v18.5H53v4.2H40.4v-4.2h4.2zm4.1-23.5h-4.2V103h4.2v4.6zm16.2 5.1c1.1 0 2.2.2 3.2.6 1 .4 1.8.9 2.5 1.6.7.7 1.2 1.5 1.6 2.5.4 1 .6 2 .6 3.2v6.9c0 1.2-.2 2.2-.6 3.2-.4 1-.9 1.8-1.6 2.5-.7.7-1.5 1.2-2.5 1.6-1 .4-2 .6-3.2.6h-4.2v9.7h-4.2v-28.2h-3.2v-4.2h11.6zm3.7 7.8c0-1-.4-1.9-1.1-2.6-.7-.7-1.6-1.1-2.6-1.1h-4.2v14.3h4.2c1 0 1.9-.4 2.6-1.1.7-.7 1.1-1.6 1.1-2.6v-6.9zm18.5-7.8c1.1 0 2.2.2 3.2.6 1 .4 1.8.9 2.5 1.6.7.7 1.2 1.5 1.6 2.5.4 1 .6 2 .6 3.2v6.9c0 1.2-.2 2.2-.6 3.2-.4 1-.9 1.8-1.6 2.5-.7.7-1.5 1.2-2.5 1.6-1 .4-2 .6-3.2.6h-4.2v9.7h-4.2v-28.2h-3.2v-4.2h11.6zm3.7 7.8c0-1-.4-1.9-1.1-2.6-.7-.7-1.6-1.1-2.6-1.1h-4.2v14.3h4.2c1 0 1.9-.4 2.6-1.1.7-.7 1.1-1.6 1.1-2.6v-6.9zm14.3 14.8H101v-28.2h-3.2v-4.2h7.4v32.4zm5.6-14.5c0-1.2.2-2.3.6-3.3.4-1 1-1.9 1.7-2.6.7-.7 1.6-1.3 2.6-1.7 1-.4 2.1-.6 3.3-.6 1.2 0 2.3.2 3.3.6 1 .4 1.9 1 2.6 1.7.7.7 1.3 1.6 1.7 2.6.4 1 .6 2.1.6 3.2v5.6h-12.5v1.2c0 1 .4 1.9 1.1 2.6.7.7 1.6 1.1 2.6 1.1h7.4v4.2h-7.4c-1.2 0-2.2-.2-3.2-.6-1-.4-1.8-.9-2.5-1.6-.7-.7-1.2-1.5-1.6-2.4-.4-.9-.6-2-.6-3.1v-6.9zm8.3-4c-1.2 0-2.2.4-3 1.1-.8.7-1.2 1.7-1.2 2.8v1.7h8.3v-1.7c0-1.1-.4-2-1.2-2.8-.8-.8-1.7-1.1-2.9-1.1zm29.8-4.6c0-1.4-.5-2.5-1.4-3.5-.9-.9-2.1-1.4-3.5-1.4h-14.3v-4.4h14.3c1.3 0 2.5.2 3.6.7 1.1.5 2.1 1.2 2.9 2 .8.8 1.5 1.8 2 2.9.5 1.1.7 2.3.7 3.6 0 1.3-.2 2.5-.7 3.6-.5 1.1-1.2 2.1-2 2.9-.8.8-1.8 1.5-2.9 2-1.1.5-2.3.7-3.6.7h-6.2v13.9h-4.4V117h10.6c1.4 0 2.5-.5 3.5-1.4.9-.9 1.4-2 1.4-3.4zm12.7 23.1c-2.1 0-3.8-.6-5-1.9-1.3-1.3-1.9-2.9-1.9-5s.6-3.8 1.9-5c1.3-1.3 2.9-1.9 5-1.9h5.5V120c0-.9-.3-1.7-.9-2.3-.6-.6-1.4-.9-2.3-.9h-6v-4.2h6c2.2 0 4 .7 5.4 2 1.4 1.4 2 3.1 2 5.4v15.2h-9.7zm0-9.7c-.8 0-1.5.3-2 .8s-.8 1.2-.8 2 .3 1.5.8 2 1.2.8 2 .8h5.5v-5.5h-5.5zm27.3-12.9h4.4l-7.6 25.4c-.7 2.3-1.7 4-2.9 5.2-1.2 1.2-2.9 1.7-5 1.7h-1.4v-4.2h1.4c1 0 1.9-.3 2.4-.8.6-.5 1-1.2 1.2-2l.9-3-6.2-18.3h-3v-4.2h6l5.1 15.9 4.7-15.7z" fill="#3c3c3b"/><path class="st1" d="M86.3 83.7V51.9s-.5-7.3-4.7-10.1c-5.4-3.6-30-17.7-30-17.7l10.8-5.8L84.1 31s12.5 5.8 12.5 20v27.1l-10.3 5.6zm22.4 0V51.9s.5-7.6 4.4-10.1c5.5-3.5 29.8-17.7 29.8-17.7L132 18.3 111 31s-11.8 5.8-11.8 20v27.1l9.5 5.6zm24.1-81l-28.5 17.4s-6.1 3.1-10.8.7C87.6 17.9 64 2.7 64 2.7V15l20.6 12.8s11 8 23.6 1.3c11.4-6 24.6-14.1 24.6-14.1V2.7z"/><circle class="st1" cx="73.6" cy="51" r="7.6"/><circle class="st1" cx="121.9" cy="51" r="7.6"/><circle class="st1" cx="95.7" cy="9.6" r="7.6"/></svg>