<svg id="Слой_1" xmlns="http://www.w3.org/2000/svg" viewBox="0 0 144 104"><style>.st1{fill:#3f82f0}</style><path d="M68 77.2v18H7.5v-18h21.2V32.1c-.9 1.2-2.3 2.4-4.2 3.7-1.9 1.2-4 2.4-6.3 3.5s-4.6 2-7.1 2.7c-2.6.6-4.7 1-6.6 1V24.3c1.8 0 4-.6 6.6-1.7s5.1-2.5 7.6-4.1 4.6-3.2 6.5-4.7c1.8-1.5 3-2.8 3.5-3.7h20.4v67l18.9.1z" fill="#eef4fe"/><path class="st1" d="M50.3 43.6h23.3c.8 0 1.5-.7 1.5-1.5s-.7-1.5-1.5-1.5H50.3c-.8 0-1.5.7-1.5 1.5s.7 1.5 1.5 1.5zm46.5 7.7H50.3c-.8 0-1.5.7-1.5 1.5s.7 1.5 1.5 1.5h46.5c.8 0 1.5-.7 1.5-1.5s-.6-1.5-1.5-1.5zm0 10.8H50.3c-.8 0-1.5.7-1.5 1.5s.7 1.5 1.5 1.5h46.5c.8 0 1.5-.7 1.5-1.5 0-.9-.6-1.5-1.5-1.5z"/><path class="st1" d="M129.2 3.1L68.1 3c-5.7 0-10.3 4.6-10.3 10.3v9.5H43c-5.7 0-10.3 4.6-10.3 10.3V71c0 5.7 4.6 10.3 10.3 10.3h11.2v18.2c0 .6.4 1.2 1 1.4.2.1.4.1.5.1.4 0 .8-.2 1.1-.5l17.5-19.2h.1l29.8-.1c5.7 0 10.3-4.6 10.3-10.3v-1l9.9 10.9c.3.3.7.5 1.1.5.2 0 .3 0 .5-.1.6-.2.9-.8.9-1.4V61.6h2.2c5.7 0 10.3-4.6 10.3-10.3V13.4c.1-5.6-4.5-10.3-10.2-10.3zm-17.7 67.8c0 4-3.3 7.3-7.3 7.3l-30.6.1c-.4 0-.8.2-1.1.5L57.1 95.6V79.8c0-.8-.7-1.5-1.5-1.5H43c-4 0-7.3-3.3-7.3-7.3V33.1c0-4 3.3-7.3 7.3-7.3h16.2l44.9-.1c4 0 7.3 3.3 7.3 7.3l.1 37.9zm25-19.3c-.2 3.9-3.4 7-7.3 7h-3.7c-.8 0-1.5.7-1.5 1.5V76l-9.6-10.5V33c0-5.7-4.6-10.3-10.3-10.3l-43.4.1v-9.5C60.7 9.3 64 6 68 6l61.1.1c4.1 0 7.3 3.3 7.3 7.3v38.2h.1z"/><path class="st1" d="M79.5 43.6h2c.8 0 1.5-.7 1.5-1.5s-.7-1.5-1.5-1.5h-2c-.8 0-1.5.7-1.5 1.5s.7 1.5 1.5 1.5zm7.6 0h9.7c.8 0 1.5-.7 1.5-1.5s-.7-1.5-1.5-1.5h-9.7c-.8 0-1.5.7-1.5 1.5s.7 1.5 1.5 1.5z"/></svg>