<svg id="Слой_1" xmlns="http://www.w3.org/2000/svg" viewBox="0 0 144 104"><style>.st1{fill:#3f82f0}</style><path d="M58.2 95.3c0-4.5.3-8.5 1-12.1s1.9-7 3.7-10.1c1.7-3.1 4.1-6 7.2-8.6 3-2.7 6.9-5.3 11.5-7.9 4.1-2.2 7.7-4.1 10.8-5.7 3.1-1.6 5.7-3.2 7.8-4.5 2.1-1.4 3.7-2.8 4.8-4.2 1.1-1.4 1.6-3.1 1.6-5 0-3-1.2-5.5-3.6-7.7-2.4-2.1-5.8-3.2-10.3-3.2-2.4 0-4.6.3-6.6 1-2 .6-3.9 1.5-5.6 2.6s-3.3 2.3-4.8 3.7c-1.4 1.3-2.8 2.8-3.9 4.2l-12.7-15c1.3-1.4 3.1-2.9 5.5-4.5s5.2-3.2 8.4-4.6 6.8-2.6 10.7-3.6c3.9-.9 8.1-1.4 12.6-1.4 5.1 0 9.6.6 13.6 1.9 4 1.2 7.3 3 10.1 5.2 2.7 2.2 4.8 4.9 6.3 8 1.4 3.1 2.2 6.5 2.2 10.2 0 3.5-.6 6.6-1.9 9.2-1.3 2.7-2.9 5.1-4.9 7.2-2 2.1-4.1 3.9-6.5 5.4-2.3 1.5-4.6 2.9-6.8 4.1-1.8 1-3.8 2.1-6.1 3.4-2.3 1.3-4.5 2.7-6.8 4.2-2.2 1.5-4.3 3.1-6.2 4.8-1.9 1.6-3.3 3.3-4.3 4.8h45v18H58.2v.2z" fill="#eef4fe"/><path class="st1" d="M84 3H15.5c-.8 0-1.5.7-1.5 1.5v96c0 .8.7 1.5 1.5 1.5h52.1c.4 0 .8-.2 1.1-.4L85 85.2c.3-.3.4-.7.4-1.1V4.5c.1-.8-.6-1.5-1.4-1.5zM69.1 96.9V85.6h11.3L69.1 96.9zm13.4-14.3H67.6c-.4 0-.8.2-1.1.4-.3.3-.4.7-.4 1.1L66 99H17V6h65.4l.1 76.6z"/><path class="st1" d="M33.9 74.9c-4.7 0-8.6 3.9-8.6 8.6s3.9 8.6 8.6 8.6c4.7 0 8.6-3.9 8.6-8.6 0-2.3-.9-4.4-2.5-6.1-1.6-1.7-3.8-2.5-6.1-2.5zm0 14.1c-3.1 0-5.6-2.5-5.6-5.6s2.5-5.6 5.6-5.6c3.1 0 5.6 2.5 5.6 5.6S37 89 33.9 89zm26-6.7h-11c-.8 0-1.5.7-1.5 1.5s.7 1.5 1.5 1.5h11c.8 0 1.5-.7 1.5-1.5 0-.9-.7-1.5-1.5-1.5zM27.4 18h5.8c.8 0 1.5-.7 1.5-1.5S34 15 33.2 15h-5.8c-.8 0-1.5.7-1.5 1.5s.7 1.5 1.5 1.5zm28.1 0h17.3c.8 0 1.5-.7 1.5-1.5s-.7-1.5-1.5-1.5H55.5c-.8 0-1.5.7-1.5 1.5s.7 1.5 1.5 1.5zm-12.1 8.5h29.5c.8 0 1.5-.7 1.5-1.5s-.7-1.5-1.5-1.5H43.4c-.8 0-1.5.7-1.5 1.5s.6 1.5 1.5 1.5zM26.5 42.3h46.4c.8 0 1.5-.7 1.5-1.5s-.7-1.5-1.5-1.5H26.5c-.8 0-1.5.7-1.5 1.5s.7 1.5 1.5 1.5zm0 6.7h46.4c.8 0 1.5-.7 1.5-1.5s-.6-1.5-1.5-1.5H26.5c-.8 0-1.5.7-1.5 1.5s.7 1.5 1.5 1.5zm0 7.4h46.4c.8 0 1.5-.7 1.5-1.5s-.7-1.5-1.5-1.5H26.5c-.8 0-1.5.7-1.5 1.5s.7 1.5 1.5 1.5zm46.4 3.8h-1.1c-.8 0-1.5.7-1.5 1.5s.7 1.5 1.5 1.5h1.1c.8 0 1.5-.7 1.5-1.5 0-.9-.6-1.5-1.5-1.5zm-8 0H26.5c-.8 0-1.5.7-1.5 1.5s.7 1.5 1.5 1.5h38.3c.8 0 1.5-.7 1.5-1.5.1-.9-.6-1.5-1.4-1.5z"/></svg>