<svg id="Слой_1" xmlns="http://www.w3.org/2000/svg" viewBox="0 0 144 104"><style>.st1{fill:#3f82f0}</style><path d="M45.6 49.3c2.4.5 4.7 1.3 6.7 2.5s3.8 2.8 5.3 4.6c1.5 1.9 2.6 4 3.4 6.4.8 2.4 1.2 5 1.2 7.7 0 3.7-.7 7-2.2 10-1.5 3-3.6 5.5-6.4 7.6-2.8 2.1-6.2 3.7-10.1 4.8-3.9 1.1-8.3 1.7-13.2 1.7-12 0-21.3-3.5-28.1-10.5l10.2-13.5c2.1 2.2 4.5 3.9 7.3 5 2.7 1.1 6 1.7 9.7 1.7 8.9 0 13.3-3.3 13.3-9.8 0-3.5-1.3-6.2-4-8-2.6-1.8-6.8-2.7-12.5-2.7h-3.5V43.2h3.9c4.4 0 7.9-.9 10.3-2.7 2.5-1.8 3.7-4.2 3.7-7.2 0-2.6-.9-4.6-2.7-5.9-1.8-1.3-4.2-2-7.2-2-3.2 0-6.2.8-8.8 2.3-2.6 1.5-4.9 3.7-6.7 6.6l-12-13.7c1.3-1.7 2.9-3.2 5-4.6 2-1.4 4.4-2.6 7-3.6 2.6-1 5.4-1.8 8.4-2.3 3-.5 6.1-.8 9.2-.8 4.2 0 8 .5 11.5 1.5s6.4 2.4 8.9 4.3c2.4 1.9 4.3 4.1 5.7 6.6 1.3 2.6 2 5.4 2 8.6 0 2.4-.4 4.6-1.1 6.7-.7 2.1-1.8 4.1-3.1 5.8-1.3 1.7-2.9 3.2-4.8 4.3-2.1 1-4.1 1.8-6.3 2.2z" fill="#eef4fe"/><path class="st1" d="M139.5 36.7L107.8 5c-1.6-1.6-3.8-2.5-6.1-2.5s-4.5.9-6.1 2.5L45.5 55.2C43.9 56.8 43 59 43 61.3s.9 4.5 2.5 6.1l31 31h-4.8c-.9 0-1.6.7-1.6 1.6 0 .9.7 1.6 1.6 1.6h41.7c.9 0 1.6-.7 1.6-1.6 0-.9-.7-1.6-1.6-1.6H90.1l49.5-49.5c3.2-3.4 3.2-8.9-.1-12.2zM47.8 65.1c-1-1-1.6-2.4-1.6-3.8s.6-2.8 1.6-3.8L97.9 7.3c1-1 2.4-1.6 3.8-1.6s2.8.6 3.8 1.6l2.8 2.8-3.4 3.4c-.1 0-.1.1-.2.2l-.9.9c-.1.1-.1.1-.1.2L50.5 67.9l-2.7-2.8zm62.8-52.8l6.6 6.6-53.3 53.3-.1.1-.9.9-.1.1-3.4 3.4-6.6-6.6 57.8-57.8zm26.6 34.3L87.1 96.7c-1 1-2.4 1.6-3.8 1.6-1.5 0-2.8-.6-3.8-1.6L61.6 79l57.8-57.8L137.2 39c2.1 2 2.1 5.5 0 7.6z"/><path class="st1" d="M93.5 62.5c-.3-.3-.7-.5-1.1-.5-.4 0-.8.2-1.1.5L74.8 78.9c-.6.6-.6 1.6 0 2.3.3.3.7.5 1.1.5.4 0 .8-.2 1.1-.5l16.4-16.4c.7-.7.7-1.7.1-2.3zm-6.1 15.6l-6.7 6.7c-.6.6-.6 1.6 0 2.3.3.3.7.5 1.1.5s.8-.2 1.1-.5l6.7-6.7c.3-.3.5-.7.5-1.1 0-.4-.2-.8-.5-1.1-.5-.8-1.5-.8-2.2-.1zm7.4-6.7c-.4 0-.8.2-1.1.5l-.9.9c-.6.6-.6 1.6 0 2.3.3.3.7.5 1.1.5.4 0 .8-.2 1.1-.5l.9-.9c.3-.3.5-.7.5-1.1 0-.4-.2-.8-.5-1.1-.3-.4-.7-.6-1.1-.6zm26.9-37.1c-.3-.3-.7-.5-1.1-.5-.4 0-.8.2-1.1.5l-8.8 8.8c-.3.3-.5.7-.5 1.1 0 .4.2.8.5 1.1l5.9 5.9c.3.3.7.5 1.1.5.4 0 .8-.2 1.1-.5l8.8-8.8c.6-.6.6-1.6 0-2.3l-5.9-5.8zm-4.1 13.6l-3.6-3.6 6.6-6.6 3.6 3.6-6.6 6.6z"/></svg>